<svg xmlns="http://www.w3.org/2000/svg" style="display:none">
    <symbol id="icon-browse-activity" viewBox="0 -960 960 960">
        <path
            d="M80-600v-160q0-33 23.5-56.5T160-840h640q33 0 56.5 23.5T880-760v160h-80v-160H160v160H80Zm80 360q-33 0-56.5-23.5T80-320v-200h80v200h640v-200h80v200q0 33-23.5 56.5T800-240H160ZM40-120v-80h880v80H40Zm440-420ZM80-520v-80h240q11 0 21 6t15 16l47 93 123-215q5-9 14-14.5t20-5.5q11 0 21 5.5t15 16.5l49 98h235v80H620q-11 0-21-5.5T584-542l-26-53-123 215q-5 10-15 15t-21 5q-11 0-20.5-6T364-382l-69-138H80Z" />
    </symbol>

    <symbol id="icon-dashboard" viewBox="0 -960 960 960">
        <path
            d="M600-160v-280h280v280H600ZM440-520v-280h440v280H440ZM80-160v-280h440v280H80Zm0-360v-280h280v280H80Zm440-80h280v-120H520v120ZM160-240h280v-120H160v120Zm520 0h120v-120H680v120ZM160-600h120v-120H160v120Zm360 0Zm-80 240Zm240 0ZM280-600Z" />
    </symbol>
    <symbol id="icon-database" viewBox="0 -960 960 960">
        <path
            d="M480-120q-151 0-255.5-46.5T120-280v-400q0-66 105.5-113T480-840q149 0 254.5 47T840-680v400q0 67-104.5 113.5T480-120Zm0-479q89 0 179-25.5T760-679q-11-29-100.5-55T480-760q-91 0-178.5 25.5T200-679q14 30 101.5 55T480-599Zm0 199q42 0 81-4t74.5-11.5q35.5-7.5 67-18.5t57.5-25v-120q-26 14-57.5 25t-67 18.5Q600-528 561-524t-81 4q-42 0-82-4t-75.5-11.5Q287-543 256-554t-56-25v120q25 14 56 25t66.5 18.5Q358-408 398-404t82 4Zm0 200q46 0 93.5-7t87.5-18.5q40-11.5 67-26t32-29.5v-98q-26 14-57.5 25t-67 18.5Q600-328 561-324t-81 4q-42 0-82-4t-75.5-11.5Q287-343 256-354t-56-25v99q5 15 31.5 29t66.5 25.5q40 11.5 88 18.5t94 7Z" />
    </symbol>
    <symbol id="icon-extension" viewBox="0 -960 960 960">
        <path
            d="M352-120H200q-33 0-56.5-23.5T120-200v-152q48 0 84-30.5t36-77.5q0-47-36-77.5T120-568v-152q0-33 23.5-56.5T200-800h160q0-42 29-71t71-29q42 0 71 29t29 71h160q33 0 56.5 23.5T800-720v160q42 0 71 29t29 71q0 42-29 71t-71 29v160q0 33-23.5 56.5T720-120H568q0-50-31.5-85T460-240q-45 0-76.5 35T352-120Zm-152-80h85q24-66 77-93t98-27q45 0 98 27t77 93h85v-240h80q8 0 14-6t6-14q0-8-6-14t-14-6h-80v-240H480v-80q0-8-6-14t-14-6q-8 0-14 6t-6 14v80H200v88q54 20 87 67t33 105q0 57-33 104t-87 68v88Zm260-260Z" />
    </symbol>
    <symbol id="icon-key" viewBox="0 -960 960 960">
        <path
            d="M223.5-423.5Q200-447 200-480t23.5-56.5Q247-560 280-560t56.5 23.5Q360-513 360-480t-23.5 56.5Q313-400 280-400t-56.5-23.5ZM280-240q-100 0-170-70T40-480q0-100 70-170t170-70q67 0 121.5 33t86.5 87h352l120 120-180 180-80-60-80 60-85-60h-47q-32 54-86.5 87T280-240Zm0-80q56 0 98.5-34t56.5-86h125l58 41 82-61 71 55 75-75-40-40H435q-14-52-56.5-86T280-640q-66 0-113 47t-47 113q0 66 47 113t113 47Z" />
    </symbol>
    <symbol id="icon-login" viewBox="0 -960 960 960">
        <path
            d="M480-120v-80h280v-560H480v-80h280q33 0 56.5 23.5T840-760v560q0 33-23.5 56.5T760-120H480Zm-80-160-55-58 102-102H120v-80h327L345-622l55-58 200 200-200 200Z" />
    </symbol>
    <symbol id="icon-logout" viewBox="0 -960 960 960">
        <path
            d="M200-120q-33 0-56.5-23.5T120-200v-560q0-33 23.5-56.5T200-840h280v80H200v560h280v80H200Zm440-160-55-58 102-102H360v-80h327L585-622l55-58 200 200-200 200Z" />
    </symbol>
    <symbol id="icon-menu" viewBox="0 -960 960 960">
        <path d="M120-240v-80h720v80H120Zm0-200v-80h720v80H120Zm0-200v-80h720v80H120Z" />
    </symbol>
    <symbol id="icon-power" viewBox="0 -960 960 960">
        <path
            d="M460-200h40v-74l140-140v-186H320v186l140 140v74Zm-80 80v-120L240-380v-220q0-33 23.5-56.5T320-680h40l-40 40v-200h80v160h160v-160h80v200l-40-40h40q33 0 56.5 23.5T720-600v220L580-240v120H380Zm100-280Z" />
    </symbol>
    <symbol id="icon-rule" viewBox="0 -960 960 960">
        <path
            d="m576-160-56-56 104-104-104-104 56-56 104 104 104-104 56 56-104 104 104 104-56 56-104-104-104 104Zm79-360L513-662l56-56 85 85 170-170 56 57-225 226ZM80-280v-80h360v80H80Zm0-320v-80h360v80H80Z" />
    </symbol>
    <symbol id="icon-settings" viewBox="0 -960 960 960">
        <path
            d="m370-80-16-128q-13-5-24.5-12T307-235l-119 50L78-375l103-78q-1-7-1-13.5v-27q0-6.5 1-13.5L78-585l110-190 119 50q11-8 23-15t24-12l16-128h220l16 128q13 5 24.5 12t22.5 15l119-50 110 190-103 78q1 7 1 13.5v27q0 6.5-2 13.5l103 78-110 190-118-50q-11 8-23 15t-24 12L590-80H370Zm70-80h79l14-106q31-8 57.5-23.5T639-327l99 41 39-68-86-65q5-14 7-29.5t2-31.5q0-16-2-31.5t-7-29.5l86-65-39-68-99 42q-22-23-48.5-38.5T533-694l-13-106h-79l-14 106q-31 8-57.5 23.5T321-633l-99-41-39 68 86 64q-5 15-7 30t-2 32q0 16 2 31t7 30l-86 65 39 68 99-42q22 23 48.5 38.5T427-266l13 106Zm42-180q58 0 99-41t41-99q0-58-41-99t-99-41q-59 0-99.5 41T342-480q0 58 40.5 99t99.5 41Zm-2-140Z" />
    </symbol>
    <symbol id="icon-terminal" viewBox="0 -960 960 960">
        <path d="M480-160v-80h320v80H480ZM220-320l-56-56 183-184-183-184 56-56 240 240-240 240Z" />
    </symbol>
    <!-- <symbol id="icon-browse-activity" viewBox="0 -960 960 960">
</symbol> -->
</svg>